{"title":"Hatchet II 2010 DVDRip Xvid BigPerm LKRG","uid":6187844,"size":909893979,"categoryP":"video","categoryS":"movies","magnet":"?xt=urn:btih:2a680db245b6bf91d7314121a068a0b34ef6d322&amp;dn=Hatchet+II+2010+DVDRip+Xvid+BigPerm+LKRG&amp;tr=udp%3A%2F%2Ftracker.openbittorrent.com%3A80&amp;tr=udp%3A%2F%2Fopen.demonii.com%3A1337&amp;tr=udp%3A%2F%2Ftracker.coppersurfer.tk%3A6969&amp;tr=udp%3A%2F%2Fexodus.desync.com%3A6969","seeders":0,"leechers":1,"uploader":"hiest","files":-1,"time":1298176104,"description":"\n ######           ######                       \n #     # #  ####  #     # ###### #####  #    # \n #     # # #    # #     # #      #    # ##  ## \n ######  # #      ######  #####  #    # # ## # \n #     # # #  ### #       #      #####  #    # \n #     # # #    # #       #      #   #  #    # \n ######  #  ####  #       ###### #    # #    # \n\n\nPlot\n\nMarybeth escapes the clutches of the bayou-butcher Victor Crowley and returns\nto the swamp with an army of hunters and gunmen, determined to end Crowley's\nreign of horror once and for all.\n\n\nGeneral\nComplete name : Hatchet II 2010 DVDRip Xvid BigPerm LKRGH2_LKRG.avi\nFormat : AVI\nFormat/Info : Audio Video Interleave\nFile size : 868 MiB\nDuration : 1h 25mn\nOverall bit rate : 1 422 Kbps\n\nVideo\nID : 0\nFormat : MPEG-4 Visual\nFormat profile : Advanced Simple@L5\nFormat settings, BVOP : Yes\nFormat settings, QPel : No\nFormat settings, GMC : No warppoints\nFormat settings, Matrix : Default (H.263)\nCodec ID : XVID\nCodec ID/Hint : XviD\nDuration : 1h 25mn\nBit rate : 1 225 Kbps\nWidth : 704 pixels\nHeight : 396 pixels\nDisplay aspect ratio : 16:9\nFrame rate : 23.976 fps\nColor space : YUV\nChroma subsampling : 4:2:0\nBit depth : 8 bits\nScan type : Progressive\nCompression mode : Lossy\nBits/(Pixel*Frame) : 0.183\nStream size : 747 MiB (86%)\nWriting library : XviD 1.2.1 (UTC 2008-12-04)\n\nAudio\nID : 1\nFormat : AC-3\nFormat/Info : Audio Coding 3\nMode extension : CM (complete main)\nCodec ID : 2000\nDuration : 1h 25mn\nBit rate mode : Constant\nBit rate : 192 Kbps\nChannel(s) : 2 channels\nChannel positions : Front: L R\nSampling rate : 48.0 KHz\nBit depth : 16 bits\nCompression mode : Lossy\nVideo delay : 42ms\nStream size : 117 MiB (13%)\nAlignment : Split accross interleaves\nInterleave, duration : 500 ms (11.99 video frames)\nInterleave, preload duration : 500 ms\nLanguage : English\n\n\n\n\n\n================================== &lt;a href=&quot;\nhttp://thepiratebay.se/user/hiest&quot; rel=&quot;nofollow&quot; target=&quot;_NEW&quot;&gt;\nhttp://thepiratebay.se/user/hiest&lt;/a&gt;\n==================================\n\n\n\n\n\nScreenshots:\n &lt;a href=&quot;\nhttp://leetleech.org/images/75894688634949819376.png&quot; rel=&quot;nofollow&quot; target=&quot;_NEW&quot;&gt;\nhttp://leetleech.org/images/75894688634949819376.png&lt;/a&gt;\n &lt;a href=&quot;\nhttp://leetleech.org/images/25378042875912073174.png&quot; rel=&quot;nofollow&quot; target=&quot;_NEW&quot;&gt;\nhttp://leetleech.org/images/25378042875912073174.png&lt;/a&gt;\n &lt;a href=&quot;\nhttp://leetleech.org/images/80818156829607433352.png&quot; rel=&quot;nofollow&quot; target=&quot;_NEW&quot;&gt;\nhttp://leetleech.org/images/80818156829607433352.png&lt;/a&gt;\n &lt;a href=&quot;\nhttp://leetleech.org/images/70703474362658477380.png&quot; rel=&quot;nofollow&quot; target=&quot;_NEW&quot;&gt;\nhttp://leetleech.org/images/70703474362658477380.png&lt;/a&gt;\n &lt;a href=&quot;\nhttp://leetleech.org/images/69277689694223264664.png&quot; rel=&quot;nofollow&quot; target=&quot;_NEW&quot;&gt;\nhttp://leetleech.org/images/69277689694223264664.png&lt;/a&gt;\n\n\n\n ######           ######                       \n #     # #  ####  #     # ###### #####  #    # \n #     # # #    # #     # #      #    # ##  ## \n ######  # #      ######  #####  #    # # ## # \n #     # # #  ### #       #      #####  #    # \n #     # # #    # #       #      #   #  #    # \n ######  #  ####  #       ###### #    # #    # \n","torrent":{"xt":"urn:btih:2a680db245b6bf91d7314121a068a0b34ef6d322","amp;dn":"Hatchet+II+2010+DVDRip+Xvid+BigPerm+LKRG","amp;tr":["udp%3A%2F%2Ftracker.openbittorrent.com%3A80","udp%3A%2F%2Fopen.demonii.com%3A1337","udp%3A%2F%2Ftracker.coppersurfer.tk%3A6969","udp%3A%2F%2Fexodus.desync.com%3A6969"],"infoHash":"2a680db245b6bf91d7314121a068a0b34ef6d322","infoHashBuffer":{"type":"Buffer","data":[42,104,13,178,69,182,191,145,215,49,65,33,160,104,160,179,78,246,211,34]},"announce":[],"urlList":[]}}